<?xml version="1.0" standalone="no"?>
<!DOCTYPE svg PUBLIC "-//W3C//DTD SVG 20010904//EN"
 "http://www.w3.org/TR/2001/REC-SVG-20010904/DTD/svg10.dtd">
<svg version="1.0" xmlns="http://www.w3.org/2000/svg"
 width="1293.000000pt" height="353.000000pt" viewBox="0 0 1293.000000 353.000000"
 preserveAspectRatio="xMidYMid meet">

<g transform="translate(0.000000,353.000000) scale(0.100000,-0.100000)"
fill="#000000" stroke="none">
<path d="M183 3523 c-43 -6 -125 -80 -155 -141 l-23 -47 -3 -1495 c-2 -822 0
-1518 3 -1547 5 -44 14 -61 53 -104 25 -28 63 -62 84 -75 l38 -24 1820 0
c1629 0 1824 2 1851 16 50 25 109 85 135 136 l24 47 0 1524 0 1524 -39 60
c-21 33 -58 76 -83 96 l-45 37 -1814 -2 c-998 0 -1828 -3 -1846 -5z m637 -658
c16 -8 37 -26 45 -39 22 -33 34 -150 35 -332 0 -88 3 -202 6 -252 l7 -90 63
54 c119 100 244 148 389 148 217 0 397 -111 492 -301 63 -126 78 -205 78 -418
0 -171 -2 -184 -29 -265 -45 -135 -92 -217 -171 -296 -79 -80 -146 -117 -250
-139 -197 -42 -367 5 -515 142 l-68 63 -7 -48 c-11 -78 -40 -128 -89 -151 -23
-12 -60 -21 -81 -21 -53 0 -119 41 -135 82 -18 45 -30 701 -24 1243 5 485 8
530 35 574 39 65 141 86 219 46z m1642 -544 c35 -23 49 -39 58 -68 6 -21 15
-171 20 -333 18 -582 21 -601 91 -664 52 -48 76 -56 157 -56 85 0 151 30 209
92 83 91 87 112 103 613 12 372 14 383 85 422 77 43 189 19 230 -49 17 -29 20
-65 28 -353 4 -176 7 -444 5 -595 -4 -263 -5 -278 -27 -323 -38 -78 -127 -109
-207 -71 -40 19 -80 81 -89 139 -4 22 -8 46 -11 53 -2 9 -30 -10 -76 -53 -129
-118 -263 -164 -434 -151 -243 18 -382 153 -404 390 -5 53 -10 265 -12 473 -1
326 1 386 15 433 36 121 154 167 259 101z"/>
<path d="M1163 2072 c-71 -25 -118 -64 -163 -132 -57 -89 -73 -160 -73 -326 0
-137 1 -143 31 -207 39 -84 99 -149 171 -184 78 -39 182 -39 257 0 162 83 235
296 189 551 -33 188 -142 302 -298 312 -44 3 -77 -1 -114 -14z"/>
<path d="M4315 3353 c-35 -9 -63 -34 -81 -71 -17 -34 -19 -87 -22 -694 -4
-656 -4 -657 17 -702 22 -43 67 -76 106 -76 56 0 125 68 125 124 0 45 26 42
82 -10 171 -154 418 -146 584 20 108 109 154 235 154 427 0 333 -134 528 -383
559 -143 18 -248 -11 -364 -100 -42 -31 -53 -36 -53 -22 -7 260 -20 454 -31
477 -21 43 -90 78 -134 68z m542 -647 c104 -49 148 -150 147 -336 -1 -130 -16
-179 -79 -256 -119 -145 -348 -95 -412 91 -14 38 -18 81 -18 180 0 114 3 135
23 175 73 149 208 207 339 146z"/>
<path d="M7933 3318 c-32 -23 -63 -81 -63 -119 0 -38 28 -88 60 -104 73 -38
150 -18 190 48 71 116 -76 252 -187 175z"/>
<path d="M11220 2935 c-134 -24 -214 -65 -282 -145 -42 -48 -58 -98 -58 -176
0 -73 24 -128 74 -172 52 -46 108 -71 306 -142 234 -83 271 -107 273 -174 2
-82 -61 -126 -184 -126 -41 0 -91 5 -112 11 -39 10 -100 65 -178 157 -34 39
-39 42 -88 42 -43 0 -56 -4 -75 -25 -75 -81 -8 -234 136 -306 89 -45 158 -59
288 -59 200 0 322 40 404 131 76 84 101 232 55 326 -45 94 -138 147 -383 222
-238 73 -266 90 -266 158 0 85 170 133 280 80 19 -10 65 -46 102 -82 79 -75
116 -88 175 -59 46 23 65 57 59 107 -13 113 -153 204 -356 232 -25 3 -56 8
-70 10 -14 2 -59 -3 -100 -10z"/>
<path d="M5550 2922 c-63 -31 -64 -41 -68 -400 -5 -436 8 -517 94 -606 74 -76
207 -114 334 -96 84 12 136 38 222 113 l76 66 4 -53 c5 -65 35 -110 84 -126
47 -16 76 -7 124 36 l40 36 0 482 0 482 -39 38 c-63 62 -137 59 -199 -7 -22
-23 -23 -32 -32 -303 -5 -153 -12 -304 -16 -334 -15 -127 -93 -206 -214 -217
-91 -9 -155 33 -181 118 -5 19 -16 180 -24 359 -8 188 -19 339 -25 358 -8 22
-25 39 -51 52 -47 25 -84 25 -129 2z"/>
<path d="M7001 2930 c-111 -24 -232 -105 -274 -184 -31 -59 -31 -184 0 -243
45 -84 110 -121 363 -208 226 -78 263 -102 263 -175 0 -41 -25 -79 -65 -101
-38 -20 -118 -28 -175 -18 -79 15 -124 40 -170 95 -87 106 -97 114 -148 114
-98 0 -134 -88 -79 -198 43 -87 123 -141 264 -178 141 -37 378 -12 486 51 115
68 181 211 154 338 -27 134 -105 183 -468 297 -105 33 -140 49 -169 76 -29 28
-34 38 -29 61 9 39 67 90 110 99 20 3 66 3 102 -1 64 -7 68 -9 142 -77 42 -39
91 -77 108 -85 42 -21 94 -10 129 25 24 24 27 33 23 80 -11 134 -179 230 -413
238 -60 2 -130 -1 -154 -6z"/>
<path d="M7940 2922 c-63 -31 -64 -41 -65 -552 0 -504 -1 -493 65 -538 57 -38
136 -18 177 45 16 24 18 70 22 501 l3 473 -28 31 c-57 59 -111 72 -174 40z"/>
<path d="M8473 2907 c-35 -33 -36 -36 -44 -133 -12 -148 -11 -802 1 -846 32
-114 154 -151 224 -68 31 38 35 68 46 395 6 165 14 286 22 310 7 22 33 60 58
86 53 53 113 74 195 67 69 -6 109 -40 131 -113 19 -66 33 -257 34 -475 1 -199
7 -241 46 -281 50 -52 123 -47 180 12 l29 30 5 187 c3 103 2 282 -1 399 -6
203 -7 214 -33 266 -69 141 -235 219 -401 188 -82 -15 -142 -44 -218 -106 -32
-26 -59 -46 -61 -44 -1 2 -9 29 -17 59 -12 47 -19 57 -54 77 -58 33 -98 30
-142 -10z"/>
<path d="M10028 2924 c-246 -59 -391 -267 -389 -559 1 -169 49 -301 146 -397
104 -105 229 -151 406 -151 226 1 380 76 450 218 29 59 30 67 19 95 -7 17 -26
38 -43 47 -43 22 -86 6 -177 -67 -110 -89 -148 -105 -245 -105 -67 0 -89 4
-130 26 -79 40 -127 120 -149 246 l-5 32 327 3 c432 5 437 7 437 177 0 78 -4
93 -38 164 -45 95 -136 195 -213 233 -100 49 -281 66 -396 38z m181 -184 c62
-12 135 -59 158 -103 9 -18 22 -54 29 -82 25 -93 46 -85 -231 -85 -204 0 -245
2 -245 14 0 29 38 135 59 165 33 46 83 81 132 90 24 5 45 9 45 10 1 1 25 -3
53 -9z"/>
<path d="M12294 2925 c-121 -26 -217 -92 -261 -179 -51 -98 -26 -246 52 -315
46 -40 120 -73 286 -127 239 -77 289 -108 289 -176 0 -80 -72 -131 -187 -130
-122 1 -163 25 -289 166 -37 42 -44 46 -87 46 -135 0 -142 -160 -11 -279 87
-79 199 -114 369 -114 170 0 304 43 385 124 110 110 118 302 16 403 -56 57
-141 96 -311 147 -174 51 -266 94 -279 130 -30 87 65 150 204 134 58 -7 65
-11 152 -86 102 -88 138 -102 194 -75 50 23 71 73 55 127 -47 158 -330 258
-577 204z"/>
<path d="M7197 1729 c-116 -27 -174 -104 -183 -243 -10 -139 -6 -133 -76 -145
-73 -13 -105 -32 -114 -68 -15 -58 39 -103 134 -111 l52 -4 0 -363 0 -363 40
-36 c32 -28 48 -36 79 -36 49 0 96 36 112 88 7 23 14 163 18 372 l6 334 75 13
c88 15 113 36 108 92 -4 45 -46 76 -118 84 -28 3 -55 9 -60 12 -14 8 -13 128
1 159 16 34 29 38 143 46 110 7 126 17 126 76 0 39 -41 78 -98 94 -44 12 -192
12 -245 -1z"/>
<path d="M6526 1701 c-72 -48 -86 -120 -33 -177 26 -28 42 -37 78 -41 27 -3
55 0 68 7 32 17 61 70 61 110 -1 93 -99 150 -174 101z"/>
<path d="M4281 1357 c-19 -7 -44 -25 -55 -40 -20 -27 -21 -42 -24 -348 -2
-191 1 -343 8 -376 13 -74 57 -140 121 -183 l52 -35 136 0 c159 0 175 6 270
92 l61 55 0 -37 c0 -72 51 -125 120 -125 44 0 70 16 86 55 21 51 21 840 -1
891 -28 68 -136 80 -183 19 -27 -34 -31 -73 -42 -356 -5 -134 -14 -261 -20
-281 -14 -48 -86 -111 -145 -128 -81 -23 -150 2 -188 68 -21 36 -33 161 -45
474 l-7 198 -30 29 c-37 35 -69 43 -114 28z"/>
<path d="M5395 1356 c-61 -27 -60 -15 -63 -420 -4 -432 0 -506 32 -543 27 -31
106 -42 146 -21 42 23 51 73 60 343 4 138 13 271 20 296 24 93 109 159 206
159 63 0 107 -26 135 -82 21 -40 23 -63 31 -328 8 -295 14 -345 47 -374 43
-39 141 -30 170 16 42 68 40 680 -4 784 -20 48 -87 118 -140 147 -34 19 -56
22 -155 22 -133 0 -168 -12 -262 -88 -31 -26 -59 -47 -61 -47 -2 0 -7 18 -11
40 -12 77 -86 125 -151 96z"/>
<path d="M6535 1352 c-70 -33 -69 -27 -73 -495 l-4 -418 40 -39 c33 -33 47
-40 78 -40 63 0 101 30 119 95 24 82 18 781 -7 837 -29 65 -90 89 -153 60z"/>
<path d="M7593 1358 c-34 -9 -70 -47 -79 -83 -7 -29 29 -134 174 -510 149
-384 149 -384 132 -427 -24 -58 -73 -127 -100 -137 -14 -5 -63 -13 -109 -17
-71 -5 -88 -10 -109 -31 -20 -20 -23 -31 -19 -61 4 -20 14 -44 24 -54 38 -37
226 -51 322 -22 66 19 128 75 169 151 50 95 368 911 407 1047 15 50 15 58 0
85 -21 41 -56 63 -101 63 -71 0 -83 -23 -229 -427 -48 -132 -93 -251 -99 -263
-15 -28 -5 -50 -119 273 -104 292 -135 370 -156 389 -26 24 -71 34 -108 24z"/>
</g>
</svg>
